HIERARCHY
ROOT Hips
{
  OFFSET 5.80788e-005 67.184 3.4734
  CHANNELS 6 Xposition Yposition Zposition Zrotation Xrotation Yrotation
  JOINT Chest
  {
    OFFSET 0 8.7983 -4.7612
    CHANNELS 3 Zrotation Xrotation Yrotation
    JOINT Chest2
    {
      OFFSET 0 8.0291 0.4195
      CHANNELS 3 Zrotation Xrotation Yrotation
      JOINT Chest3
      {
        OFFSET 0 9.9351 -2.2114
        CHANNELS 3 Zrotation Xrotation Yrotation
        JOINT Neck
        {
          OFFSET 0 22.3885 -0.4656
          CHANNELS 3 Zrotation Xrotation Yrotation
          JOINT Head
          {
            OFFSET -0.0001 12.643 3.4389
            CHANNELS 3 Zrotation Xrotation Yrotation
            End Site
            {
              OFFSET 0.0001 17.6655 0.5274
            }
          }
        }
        JOINT LeftCollar
        {
          OFFSET 2.2603 21.606 7.4023
          CHANNELS 3 Zrotation Xrotation Yrotation
          JOINT LeftShoulder
          {
            OFFSET 13.5163 -1.1332 -5.0146
            CHANNELS 3 Zrotation Xrotation Yrotation
            JOINT LeftElbow
            {
              OFFSET -0.0995 -28.05 -0.2431
              CHANNELS 3 Zrotation Xrotation Yrotation
              JOINT LeftWrist
              {
                OFFSET 0.0679 -23.3996 -0.1402
                CHANNELS 3 Zrotation Xrotation Yrotation
                JOINT LeftFinger1
                {
                  OFFSET 0.7932 -9.069 2.5189
                  CHANNELS 3 Zrotation Xrotation Yrotation
                  JOINT LeftFinger11
                  {
                    OFFSET -0.8272 -3.3923 0.5977
                    CHANNELS 3 Zrotation Xrotation Yrotation
                    JOINT LeftFinger12
                    {
                      OFFSET -0.5649 -2.3158 0.4082
                      CHANNELS 3 Zrotation Xrotation Yrotation
                      End Site
                      {
                        OFFSET -0.4919 -1.6479 0.2673
                      }
                    }
                  }
                }
                JOINT LeftFinger2
                {
                  OFFSET 0.9159 -9.2044 0.2193
                  CHANNELS 3 Zrotation Xrotation Yrotation
                  JOINT LeftFinger21
                  {
                    OFFSET 0.0117 -4.1944 -0.0248
                    CHANNELS 3 Zrotation Xrotation Yrotation
                    JOINT LeftFinger22
                    {
                      OFFSET 0.0071 -2.3249 -0.0142
                      CHANNELS 3 Zrotation Xrotation Yrotation
                      End Site
                      {
                        OFFSET -0.1475 -2.0882 0.0028
                      }
                    }
                  }
                }
                JOINT LeftFinger3
                {
                  OFFSET 0.6113 -8.7231 -2.0637
                  CHANNELS 3 Zrotation Xrotation Yrotation
                  JOINT LeftFinger31
                  {
                    OFFSET -0.1927 -3.8059 -0.2383
                    CHANNELS 3 Zrotation Xrotation Yrotation
                    JOINT LeftFinger32
                    {
                      OFFSET -0.1091 -2.1688 -0.1362
                      CHANNELS 3 Zrotation Xrotation Yrotation
                      End Site
                      {
                        OFFSET -0.2358 -1.9176 -0.0906
                      }
                    }
                  }
                }
                JOINT LeftFinger4
                {
                  OFFSET -0.6151 -8.0947 -3.5641
                  CHANNELS 3 Zrotation Xrotation Yrotation
                  JOINT LeftFinger41
                  {
                    OFFSET -0.4882 -2.341 -0.6462
                    CHANNELS 3 Zrotation Xrotation Yrotation
                    JOINT LeftFinger42
                    {
                      OFFSET -0.3575 -1.7167 -0.4742
                      CHANNELS 3 Zrotation Xrotation Yrotation
                      End Site
                      {
                        OFFSET -0.4187 -1.5237 -0.3496
                      }
                    }
                  }
                }
                JOINT LeftFinger0
                {
                  OFFSET -1.42 -1.8761 1.4223
                  CHANNELS 3 Zrotation Xrotation Yrotation
                  JOINT LeftFinger01
                  {
                    OFFSET -1.1471 -3.4929 2.6334
                    CHANNELS 3 Zrotation Xrotation Yrotation
                    JOINT LeftFinger02
                    {
                      OFFSET -0.823 -2.3 1.6571
                      CHANNELS 3 Zrotation Xrotation Yrotation
                      End Site
                      {
                        OFFSET -0.5822 -1.6914 1.1582
                      }
                    }
                  }
                }
              }
            }
          }
        }
        JOINT RightCollar
        {
          OFFSET -2.2603 21.606 7.4023
          CHANNELS 3 Zrotation Xrotation Yrotation
          JOINT RightShoulder
          {
            OFFSET -13.5187 -1.1334 -5.0155
            CHANNELS 3 Zrotation Xrotation Yrotation
            JOINT RightElbow
            {
              OFFSET 0.0994 -28.0499 -0.2431
              CHANNELS 3 Zrotation Xrotation Yrotation
              JOINT RightWrist
              {
                OFFSET -0.0679 -23.3996 -0.1402
                CHANNELS 3 Zrotation Xrotation Yrotation
                JOINT RightFinger1
                {
                  OFFSET -0.7932 -9.0691 2.5189
                  CHANNELS 3 Zrotation Xrotation Yrotation
                  JOINT RightFinger11
                  {
                    OFFSET 0.8272 -3.3923 0.5977
                    CHANNELS 3 Zrotation Xrotation Yrotation
                    JOINT RightFinger12
                    {
                      OFFSET 0.565 -2.3158 0.4082
                      CHANNELS 3 Zrotation Xrotation Yrotation
                      End Site
                      {
                        OFFSET 0.4919 -1.6479 0.2673
                      }
                    }
                  }
                }
                JOINT RightFinger2
                {
                  OFFSET -0.916 -9.2044 0.2193
                  CHANNELS 3 Zrotation Xrotation Yrotation
                  JOINT RightFinger21
                  {
                    OFFSET -0.0117 -4.1944 -0.0248
                    CHANNELS 3 Zrotation Xrotation Yrotation
                    JOINT RightFinger22
                    {
                      OFFSET -0.0071 -2.3249 -0.0142
                      CHANNELS 3 Zrotation Xrotation Yrotation
                      End Site
                      {
                        OFFSET 0.1475 -2.0882 0.0028
                      }
                    }
                  }
                }
                JOINT RightFinger3
                {
                  OFFSET -0.6113 -8.7231 -2.0637
                  CHANNELS 3 Zrotation Xrotation Yrotation
                  JOINT RightFinger31
                  {
                    OFFSET 0.1927 -3.8059 -0.2383
                    CHANNELS 3 Zrotation Xrotation Yrotation
                    JOINT RightFinger32
                    {
                      OFFSET 0.1091 -2.1688 -0.1362
                      CHANNELS 3 Zrotation Xrotation Yrotation
                      End Site
                      {
                        OFFSET 0.2358 -1.9176 -0.0906
                      }
                    }
                  }
                }
                JOINT RightFinger4
                {
                  OFFSET 0.6151 -8.0947 -3.564
                  CHANNELS 3 Zrotation Xrotation Yrotation
                  JOINT RightFinger41
                  {
                    OFFSET 0.4882 -2.341 -0.6462
                    CHANNELS 3 Zrotation Xrotation Yrotation
                    JOINT RightFinger42
                    {
                      OFFSET 0.3574 -1.7166 -0.4742
                      CHANNELS 3 Zrotation Xrotation Yrotation
                      End Site
                      {
                        OFFSET 0.4187 -1.5237 -0.3496
                      }
                    }
                  }
                }
                JOINT RightFinger0
                {
                  OFFSET 1.4199 -1.8761 1.4221
                  CHANNELS 3 Zrotation Xrotation Yrotation
                  JOINT RightFinger01
                  {
                    OFFSET 1.1472 -3.4929 2.6336
                    CHANNELS 3 Zrotation Xrotation Yrotation
                    JOINT RightFinger02
                    {
                      OFFSET 0.8229 -2.3 1.6571
                      CHANNELS 3 Zrotation Xrotation Yrotation
                      End Site
                      {
                        OFFSET 0.5822 -1.6914 1.1582
                      }
                    }
                  }
                }
              }
            }
          }
        }
      }
    }
  }
  JOINT RightHip
  {
    OFFSET -9.412 3.9771 -0.7758
    CHANNELS 3 Zrotation Xrotation Yrotation
    JOINT RightKnee
    {
      OFFSET -0.7531 -40.938 0
      CHANNELS 3 Zrotation Xrotation Yrotation
      JOINT RightAnkle
      {
        OFFSET 0 -40.1986 0
        CHANNELS 3 Zrotation Xrotation Yrotation
        JOINT RightToe
        {
          OFFSET 0 -4.4182 9.239
          CHANNELS 3 Zrotation Xrotation Yrotation
          End Site
          {
            OFFSET 0 0 6.1981
          }
        }
      }
    }
  }
  JOINT LeftHip
  {
    OFFSET 9.4119 3.9773 -0.7758
    CHANNELS 3 Zrotation Xrotation Yrotation
    JOINT LeftKnee
    {
      OFFSET 0.7532 -40.9383 0
      CHANNELS 3 Zrotation Xrotation Yrotation
      JOINT LeftAnkle
      {
        OFFSET 0 -40.1986 0
        CHANNELS 3 Zrotation Xrotation Yrotation
        JOINT LeftToe
        {
          OFFSET 0 -4.4182 9.239
          CHANNELS 3 Zrotation Xrotation Yrotation
          End Site
          {
            OFFSET 0 0 6.1981
          }
        }
      }
    }
  }
}
MOTION
Frames:	4
Frame Time:	0.0333333
5.80788e-005 67.184 3.4734 0 0 -0 0 0 -0 0 0 -0 0 0 -0 0 0 -0 0 0 -0 0 0 -12.5014 88.1196 14.2451 10.6914 -0.00160068 -0.00239207 0.000740045 -8.4365e-005 7.00714e-005 -9.52055e-007 9.93923e-017 -1.98785e-016 -1.59028e-015 9.93923e-017 -5.96354e-016 -1.59028e-015 -9.93923e-017 -5.96354e-016 -1.59028e-015 9.93923e-017 -1.98785e-016 -1.59028e-015 -0.0128176 0.00232552 8.52707e-005 9.93923e-017 5.96354e-016 -0 9.93923e-017 -1.98785e-016 -1.59028e-015 -0.0160551 0.00299681 0.000857156 -2.48481e-016 0 3.18055e-015 9.93923e-017 -1.98785e-016 -1.59028e-015 -0.0125865 0.0031206 0.00282719 0 1.98785e-016 -0 9.93923e-017 -1.98785e-016 -1.59028e-015 9.93923e-017 -5.96354e-016 -1.59028e-015 -9.93923e-017 -5.96354e-016 -1.59028e-015 -0.865644 0.16582 7.03859 -88.0329 10.2057 -10.5567 0.0015593 -0.00248883 -0.000788628 7.87605e-005 4.10553e-005 1.24965e-005 -3.97569e-016 -7.95139e-016 3.18055e-015 -1.98785e-016 -3.97569e-016 3.18055e-015 -1.98785e-016 0 3.18055e-015 -3.97569e-016 -7.95139e-016 3.18055e-015 0.0129473 0.00231697 -8.70038e-005 9.93923e-017 -7.95139e-016 1.59028e-015 -3.97569e-016 -7.95139e-016 3.18055e-015 0.0163314 0.00303369 -0.000872333 3.97569e-016 7.95139e-016 -3.18055e-015 -3.97569e-016 -7.95139e-016 3.18055e-015 0.0145763 0.00367772 -0.00326275 9.93923e-017 -3.97569e-016 -0 -3.97569e-016 -7.95139e-016 3.18055e-015 -1.98785e-016 -3.97569e-016 3.18055e-015 -1.98785e-016 0 3.18055e-015 3.42485 1.36937 -0.0640303 0.000136572 0.69354 0.00145564 -3.42573 -2.06297 -0.0607933 -3.19502e-024 0 -1.48106e-024 -3.42498 1.36123 0.0639712 -6.769e-005 0.712612 -0.0012277 3.42582 -2.07388 0.0612819 2.55305e-023 0 -2.31416e-026 
39.8547 66.7854 25.63 9.49165e-009 10.9996 1.36453e-007 -0.244142 0.0634479 -0.163533 -0.488094 0.127595 -0.326789 -0.488102 0.127599 -0.326795 -2.2517e-005 0.463375 -1.51641e-005 2.76075e-007 0.305995 -4.05168e-008 -20.2637 12.2438 3.04393 22.8113 10.8069 22.8627 -6.75028 1.30147 -2.79444 -5.82929 -5.64573 -4.03412 1.59028e-015 3.18055e-015 -0 -1.59028e-015 6.36111e-015 3.18055e-015 -6.36111e-015 6.36111e-015 1.59028e-015 1.59028e-015 3.18055e-015 -0 -0.0127885 0.00231421 8.52571e-005 -2.12947e-006 1.21606e-006 -2.5183e-006 1.59028e-015 3.18055e-015 -0 -0.0160975 0.00300388 0.000862398 -1.59028e-015 -9.54166e-015 1.59028e-015 1.59028e-015 3.18055e-015 -0 -0.0125874 0.00311273 0.00282788 1.59028e-015 3.18055e-015 -3.18055e-015 1.59028e-015 3.18055e-015 -0 -1.59028e-015 6.36111e-015 3.18055e-015 -6.36111e-015 6.36111e-015 1.59028e-015 24.8868 9.61873 -9.66153 -28.3285 10.6594 -16.9819 4.37649 0.868253 2.85914 6.65928 -4.42724 4.00663 -3.53113e-031 6.36111e-015 3.18055e-015 0 9.54166e-015 -0 1.59028e-015 3.18055e-015 -0 -3.53113e-031 6.36111e-015 3.18055e-015 0.0129762 0.00231888 -7.63484e-005 1.59028e-015 6.36111e-015 3.18055e-015 -3.53113e-031 6.36111e-015 3.18055e-015 0.0163096 0.00301941 -0.000872186 -3.18055e-015 0 -6.36111e-015 -3.53113e-031 6.36111e-015 3.18055e-015 0.0145962 0.00367751 -0.00326533 -0 0 3.18055e-015 -3.53113e-031 6.36111e-015 3.18055e-015 0 9.54166e-015 -0 1.59028e-015 3.18055e-015 -0 1.67543 -10.8856 -10.1183 5.13777 0.554994 0.115385 3.37843 -5.23225 -18.0056 -3.3657e-006 1.81169e-007 3.62203e-006 2.68321 -16.5373 -6.98624 -12.7547 10.5997 3.39667 -2.76906 -6.64908 18.4403 -1.2424e-017 -3.97569e-016 -3.18055e-015 
39.8547 66.748 25.443 -6.05632e-008 12.051 -1.00192e-007 -0.242895 -0.168766 -0.164224 -0.486284 -0.336838 -0.32917 -0.486284 -0.336838 -0.32917 -2.40257e-005 0.923276 -1.61851e-005 -0.0550519 0.432175 0.0113785 -20.7082 12.5865 3.57573 23.2297 10.9266 22.7857 -6.5608 1.26765 -2.79051 -6.11568 -5.97528 -4.27327 1.59028e-015 3.18055e-015 1.59028e-015 1.59028e-015 3.18055e-015 1.59028e-015 1.59028e-015 3.18055e-015 1.59028e-015 1.59028e-015 3.18055e-015 1.59028e-015 -0.0128035 0.0023309 9.08038e-005 0 3.18055e-015 -0 1.59028e-015 3.18055e-015 1.59028e-015 -0.0160318 0.00299679 0.000861078 3.18055e-015 0 3.18055e-015 1.59028e-015 3.18055e-015 1.59028e-015 -0.012589 0.00312224 0.00282948 3.53113e-031 -3.18055e-015 6.36111e-015 1.59028e-015 3.18055e-015 1.59028e-015 1.59028e-015 3.18055e-015 1.59028e-015 1.59028e-015 3.18055e-015 1.59028e-015 25.3349 9.95808 -10.2167 -28.8042 10.7302 -16.9023 4.1907 0.835319 2.84481 6.97652 -4.74608 4.20311 -5.50577e-006 -2.16549e-006 -4.12058e-006 1.59028e-015 -3.18055e-015 3.18055e-015 3.80024e-006 7.41891e-007 1.83847e-007 -5.50577e-006 -2.16549e-006 -4.12058e-006 0.0129642 0.00231109 -7.5185e-005 -3.18055e-015 -3.18055e-015 3.18055e-015 -5.50577e-006 -2.16549e-006 -4.12058e-006 0.0163473 0.00303475 -0.000872196 1.59028e-015 -6.36111e-015 -3.18055e-015 -5.50577e-006 -2.16549e-006 -4.12058e-006 0.0146111 0.00367998 -0.00326176 4.15765e-007 4.41965e-008 -1.62027e-006 -5.50577e-006 -2.16549e-006 -4.12058e-006 1.59028e-015 -3.18055e-015 3.18055e-015 3.80024e-006 7.41891e-007 1.83847e-007 1.69533 -12.0621 -10.1512 5.12564 0.617758 0.108092 3.37813 -5.22822 -18.006 -2.51414e-006 -4.06511e-007 4.15558e-008 2.74914 -17.7685 -6.85867 -12.8906 10.7934 3.42949 -2.76781 -6.65002 18.4427 -2.23633e-015 -9.93923e-016 3.18055e-015 
39.8548 66.7132 25.2551 -6.8618e-008 13.1039 -1.4255e-007 -0.24161 -0.401306 -0.164885 -0.484386 -0.801927 -0.331468 -0.484385 -0.801934 -0.331468 -0.000188668 1.38342 -0.000130537 -0.110144 0.558378 0.0228812 -21.1569 12.9251 4.11107 23.6487 11.0457 22.7079 -6.37135 1.23388 -2.78652 -6.40372 -6.30376 -4.5143 1.59028e-015 3.18055e-015 1.59028e-015 2.64834e-031 3.18055e-015 -4.77083e-015 3.18055e-015 6.36111e-015 -6.36111e-015 1.59028e-015 3.18055e-015 1.59028e-015 -0.012821 0.00232723 8.33582e-005 -3.18055e-015 3.18055e-015 -0 1.59028e-015 3.18055e-015 1.59028e-015 -0.0160595 0.00299866 0.000860304 1.76556e-031 3.18055e-015 -3.18055e-015 1.59028e-015 3.18055e-015 1.59028e-015 -0.0126029 0.00312551 0.00283144 -1.59028e-015 -1.59028e-014 -1.59028e-015 1.59028e-015 3.18055e-015 1.59028e-015 2.64834e-031 3.18055e-015 -4.77083e-015 3.18055e-015 6.36111e-015 -6.36111e-015 25.7869 10.293 -10.7755 -29.2804 10.8001 -16.822 4.00507 0.802624 2.83055 7.29512 -5.06391 4.40154 1.43161e-007 3.17684e-006 -2.42262e-006 8.98987e-008 2.95291e-006 -3.64011e-006 2.05089e-007 -3.45124e-006 -2.51094e-006 1.43161e-007 3.17684e-006 -2.42262e-006 0.0129456 0.00231644 -8.67743e-005 4.65298e-007 -1.3118e-006 -3.4387e-006 1.43161e-007 3.17684e-006 -2.42262e-006 0.016325 0.00302626 -0.00087428 8.30827e-006 1.4378e-005 -8.7481e-006 1.43161e-007 3.17684e-006 -2.42262e-006 0.0146024 0.00368967 -0.00326989 8.40856e-007 1.25135e-007 -3.23722e-006 1.43161e-007 3.17684e-006 -2.42262e-006 8.98987e-008 2.95291e-006 -3.64011e-006 2.05089e-007 -3.45124e-006 -2.51094e-006 1.71265 -13.1472 -10.1868 5.13169 0.603353 0.110927 3.37793 -5.23765 -18.0051 1.67587e-006 8.96552e-007 -2.89865e-008 2.81829 -19.0044 -6.72858 -13.0268 10.9897 3.46333 -2.76667 -6.65122 18.445 -8.2969e-007 2.01669e-007 -8.76614e-007 
